<svg xmlns="http://www.w3.org/2000/svg" xmlns:xlink="http://www.w3.org/1999/xlink" viewBox="0 0 176.32 55.13"><defs><style>.cls-1{fill:#58595b;}.cls-2{fill:url(#linear-gradient);}</style><linearGradient id="linear-gradient" x1="33.99" y1="20.88" x2="5.55" y2="36.67" gradientUnits="userSpaceOnUse"><stop offset="0" stop-color="#dd2f40"/><stop offset="0.08" stop-color="#de3840"/><stop offset="0.22" stop-color="#e25042"/><stop offset="0.39" stop-color="#e97843"/><stop offset="0.59" stop-color="#f2af46"/><stop offset="0.6" stop-color="#f2b146"/><stop offset="0.6" stop-color="#f1b146"/><stop offset="0.71" stop-color="#aba34d"/><stop offset="0.81" stop-color="#749853"/><stop offset="0.89" stop-color="#4c9157"/><stop offset="0.96" stop-color="#348c59"/><stop offset="1" stop-color="#2b8a5a"/></linearGradient></defs><title>sclinico2</title><g id="Camada_2" data-name="Camada 2"><g id="Camada_1-2" data-name="Camada 1"><rect class="cls-1" x="56.23" y="0.93" width="0.71" height="51.76"/><path class="cls-1" d="M69.83,39.05a1.78,1.78,0,0,0,1.23-.39,1.44,1.44,0,0,0,.45-1.16,1.54,1.54,0,0,0-.28-1,2.15,2.15,0,0,0-.69-.57,7.37,7.37,0,0,0-.9-.38,4.53,4.53,0,0,1-.9-.39,2.09,2.09,0,0,1-.69-.63,1.88,1.88,0,0,1-.27-1.08,2,2,0,0,1,.22-1,1.8,1.8,0,0,1,.57-.62,2.17,2.17,0,0,1,.77-.32,4,4,0,0,1,.82-.09,3.63,3.63,0,0,1,.65.05,3.23,3.23,0,0,1,.61.14,1.35,1.35,0,0,1,.45.22.33.33,0,0,1,.18.27.57.57,0,0,1-.09.27.25.25,0,0,1-.24.15.45.45,0,0,1-.19-.07l-.3-.15a2.69,2.69,0,0,0-.45-.14,2.28,2.28,0,0,0-.63-.07,3.08,3.08,0,0,0-.61.06,1.34,1.34,0,0,0-.52.22,1,1,0,0,0-.37.4,1.32,1.32,0,0,0-.13.62,1.13,1.13,0,0,0,.27.81,2.5,2.5,0,0,0,.69.48c.28.12.58.24.9.35a3.12,3.12,0,0,1,.9.43,2.33,2.33,0,0,1,.7.73,2.39,2.39,0,0,1,.27,1.23,2.88,2.88,0,0,1-.17,1,1.92,1.92,0,0,1-.49.73,1.94,1.94,0,0,1-.76.42,3.21,3.21,0,0,1-1,.14,3.24,3.24,0,0,1-1-.14,2.83,2.83,0,0,1-.72-.32,1.52,1.52,0,0,1-.46-.39.61.61,0,0,1-.16-.37.45.45,0,0,1,.11-.27.28.28,0,0,1,.23-.14.31.31,0,0,1,.22.14,1.92,1.92,0,0,0,.32.32,1.77,1.77,0,0,0,.53.32A2.06,2.06,0,0,0,69.83,39.05Z"/><path class="cls-1" d="M73.79,31.84a.46.46,0,0,1,.34.14.41.41,0,0,1,.14.32.42.42,0,0,1-.14.33.42.42,0,0,1-.34.14.48.48,0,0,1-.36-.14.43.43,0,0,1-.15-.33.42.42,0,0,1,.15-.32A.52.52,0,0,1,73.79,31.84Zm0,2.51a.47.47,0,0,1,.27.07.23.23,0,0,1,.1.2v4.76a.26.26,0,0,1-.1.2.42.42,0,0,1-.27.09.39.39,0,0,1-.26-.09.26.26,0,0,1-.1-.2V34.62a.23.23,0,0,1,.1-.2A.44.44,0,0,1,73.79,34.35Z"/><path class="cls-1" d="M77,39.13a1.31,1.31,0,0,0,.9-.24.71.71,0,0,0,.26-.56.74.74,0,0,0-.21-.57,1.41,1.41,0,0,0-.51-.33,4.79,4.79,0,0,0-.67-.22,3.56,3.56,0,0,1-.67-.25,1.74,1.74,0,0,1-.51-.42,1.11,1.11,0,0,1-.21-.73,1.71,1.71,0,0,1,.1-.54,1.35,1.35,0,0,1,.31-.49,1.87,1.87,0,0,1,.55-.36,2.23,2.23,0,0,1,.82-.14,3.31,3.31,0,0,1,.55,0,4.93,4.93,0,0,1,.49.13,1,1,0,0,1,.34.17.31.31,0,0,1,.13.2.51.51,0,0,1-.09.24.23.23,0,0,1-.22.14.29.29,0,0,1-.16-.05l-.25-.1a2.27,2.27,0,0,0-.34-.11,1.9,1.9,0,0,0-.44-.05,1.64,1.64,0,0,0-.53.08,1.05,1.05,0,0,0-.34.22.76.76,0,0,0-.2.28,1.17,1.17,0,0,0,0,.3.59.59,0,0,0,.21.49,1.65,1.65,0,0,0,.51.28c.21.07.43.14.67.2a2.48,2.48,0,0,1,.67.27,1.56,1.56,0,0,1,.52.47,1.39,1.39,0,0,1,.21.81,1.29,1.29,0,0,1-.48,1.06,2,2,0,0,1-1.33.39,3.11,3.11,0,0,1-.72-.08,2.27,2.27,0,0,1-.56-.2,1.52,1.52,0,0,1-.36-.26.42.42,0,0,1-.13-.27.51.51,0,0,1,.07-.23.23.23,0,0,1,.19-.11.34.34,0,0,1,.19.08,1.58,1.58,0,0,0,.27.18,1.5,1.5,0,0,0,.4.18A1.81,1.81,0,0,0,77,39.13Z"/><path class="cls-1" d="M80.62,38a1,1,0,0,0,.23.77,1.19,1.19,0,0,0,.81.21H82a.3.3,0,0,1,.24.11.31.31,0,0,1,.09.22.36.36,0,0,1-.09.24.33.33,0,0,1-.24.1h-.32a2,2,0,0,1-1.32-.39A1.59,1.59,0,0,1,79.89,38V32.09a.22.22,0,0,1,.11-.2.48.48,0,0,1,.5,0,.23.23,0,0,1,.12.2v2.26h1.45a.23.23,0,0,1,.18.09.32.32,0,0,1,.08.21.33.33,0,0,1-.08.22.23.23,0,0,1-.18.09H80.62Z"/><path class="cls-1" d="M85.09,34.28a2.15,2.15,0,0,1,.8.15,2,2,0,0,1,.67.43,2.14,2.14,0,0,1,.46.64,1.9,1.9,0,0,1,.17.83,1.13,1.13,0,0,1-.08.5.67.67,0,0,1-.22.27.64.64,0,0,1-.31.11l-.36,0H83.67v.41a1.32,1.32,0,0,0,.49,1.07,1.88,1.88,0,0,0,1.22.4,2.13,2.13,0,0,0,.56-.07,2.44,2.44,0,0,0,.35-.15l.25-.16a.32.32,0,0,1,.19-.07.28.28,0,0,1,.23.12.4.4,0,0,1,.09.22.35.35,0,0,1-.12.23,1.2,1.2,0,0,1-.34.25,2.48,2.48,0,0,1-.53.19,2.93,2.93,0,0,1-.7.08,2.78,2.78,0,0,1-1-.16,2.23,2.23,0,0,1-.77-.43,2.07,2.07,0,0,1-.5-.67,2.1,2.1,0,0,1-.18-.88V36.35a1.93,1.93,0,0,1,.17-.79,2.58,2.58,0,0,1,.46-.67,2.29,2.29,0,0,1,.69-.45A2.31,2.31,0,0,1,85.09,34.28Zm.83,2.41a1,1,0,0,0,.45-.07.35.35,0,0,0,.12-.31,1.4,1.4,0,0,0-.11-.53,1.39,1.39,0,0,0-1.3-.89,1.22,1.22,0,0,0-.54.11,1.34,1.34,0,0,0-.45.29,1.23,1.23,0,0,0-.3.44,1.21,1.21,0,0,0-.12.53v.43Z"/><path class="cls-1" d="M91.64,36.35a1.47,1.47,0,0,0-.11-.56A1.24,1.24,0,0,0,90.35,35a1.36,1.36,0,0,0-.48.09,1.34,1.34,0,0,0-.42.28,1.31,1.31,0,0,0-.3.45,1.46,1.46,0,0,0-.12.6v3a.27.27,0,0,1-.11.2.39.39,0,0,1-.26.09.36.36,0,0,1-.26-.09.26.26,0,0,1-.1-.2V34.62a.23.23,0,0,1,.1-.2.4.4,0,0,1,.26-.07.38.38,0,0,1,.24.07.23.23,0,0,1,.1.2v.52a1.87,1.87,0,0,1,.57-.59,1.53,1.53,0,0,1,.93-.27,1.59,1.59,0,0,1,1,.31,1.89,1.89,0,0,1,.62.82,1.91,1.91,0,0,1,.75-.85,1.81,1.81,0,0,1,1-.28,1.9,1.9,0,0,1,.7.14,1.93,1.93,0,0,1,.61.41,2.2,2.2,0,0,1,.42.66,2.48,2.48,0,0,1,.16.89v3a.27.27,0,0,1-.11.2.4.4,0,0,1-.27.09.38.38,0,0,1-.25-.09.27.27,0,0,1-.11-.2v-3a1.48,1.48,0,0,0-.11-.61,1.19,1.19,0,0,0-.3-.45,1.24,1.24,0,0,0-.87-.36,1.36,1.36,0,0,0-.48.09,1.34,1.34,0,0,0-.42.28,1.15,1.15,0,0,0-.3.44,1.32,1.32,0,0,0-.11.57v3a.24.24,0,0,1-.12.22.55.55,0,0,1-.5,0,.25.25,0,0,1-.11-.22Z"/><path class="cls-1" d="M98.59,34.28a2.27,2.27,0,0,1,1,.18,1.79,1.79,0,0,1,.63.49,1.86,1.86,0,0,1,.34.69,3.1,3.1,0,0,1,.11.81v2.93a.23.23,0,0,1-.1.2.37.37,0,0,1-.26.09.32.32,0,0,1-.24-.09.26.26,0,0,1-.1-.2v-.5a2.79,2.79,0,0,1-.71.6,1.73,1.73,0,0,1-1,.27,2,2,0,0,1-.61-.09,1.44,1.44,0,0,1-.48-.28,1.29,1.29,0,0,1-.33-.46,1.82,1.82,0,0,1-.11-.66,1.38,1.38,0,0,1,.19-.76,1.28,1.28,0,0,1,.53-.47,2.71,2.71,0,0,1,.83-.24,7,7,0,0,1,1.07-.07h.57v-.27a2,2,0,0,0-.07-.54,1.69,1.69,0,0,0-.23-.49,1.59,1.59,0,0,0-.41-.36,1.32,1.32,0,0,0-.62-.14,2.28,2.28,0,0,0-.48,0,1.78,1.78,0,0,0-.33.12,1.24,1.24,0,0,0-.23.11.41.41,0,0,1-.16,0,.24.24,0,0,1-.22-.14.5.5,0,0,1-.07-.25.28.28,0,0,1,.13-.22,1.21,1.21,0,0,1,.36-.18,4.29,4.29,0,0,1,.49-.13A3.29,3.29,0,0,1,98.59,34.28Zm1.3,2.95h-.47c-.27,0-.51,0-.75,0a2.08,2.08,0,0,0-.64.13,1,1,0,0,0-.44.29.76.76,0,0,0-.16.51.86.86,0,0,0,.28.72,1.09,1.09,0,0,0,.7.22,1.44,1.44,0,0,0,.53-.11,2.12,2.12,0,0,0,.48-.29,1.72,1.72,0,0,0,.34-.38.73.73,0,0,0,.13-.4Z"/><path class="cls-1" d="M107.92,31.09a.39.39,0,0,1,.25.07.26.26,0,0,1,.1.2v8a.3.3,0,0,1-.1.2.35.35,0,0,1-.25.09.37.37,0,0,1-.25-.09.26.26,0,0,1-.1-.2v-.5a1.74,1.74,0,0,1-.6.61,1.77,1.77,0,0,1-.94.26,1.71,1.71,0,0,1-.77-.18,2.11,2.11,0,0,1-.63-.48,2.25,2.25,0,0,1-.43-.68,2,2,0,0,1-.16-.8V36.38a2.07,2.07,0,0,1,.16-.82,2.26,2.26,0,0,1,.43-.67,2.06,2.06,0,0,1,.64-.45,2,2,0,0,1,.78-.16,1.51,1.51,0,0,1,.93.27,1.73,1.73,0,0,1,.56.59V31.36a.22.22,0,0,1,.11-.2A.45.45,0,0,1,107.92,31.09Zm-3.15,6.52a1.5,1.5,0,0,0,.11.55,1.62,1.62,0,0,0,.31.46,1.31,1.31,0,0,0,.44.33,1.24,1.24,0,0,0,.53.12,1.26,1.26,0,0,0,.55-.12,1.74,1.74,0,0,0,.44-.31,1.34,1.34,0,0,0,.28-.37.68.68,0,0,0,.11-.31V36.38a1.46,1.46,0,0,0-.12-.6,1.34,1.34,0,0,0-.75-.73,1.46,1.46,0,0,0-.49-.09,1.26,1.26,0,0,0-.55.12,1.43,1.43,0,0,0-.44.32,1.49,1.49,0,0,0-.31.46,1.35,1.35,0,0,0-.11.52Z"/><path class="cls-1" d="M111.63,34.28a2.18,2.18,0,0,1,.8.15,2.11,2.11,0,0,1,1.13,1.07,2.05,2.05,0,0,1,.17.83,1.3,1.3,0,0,1-.08.5.67.67,0,0,1-.22.27.68.68,0,0,1-.32.11l-.36,0h-2.54v.41a1.29,1.29,0,0,0,.49,1.07,1.88,1.88,0,0,0,1.22.4,2,2,0,0,0,.55-.07l.36-.15.25-.16a.32.32,0,0,1,.19-.07.28.28,0,0,1,.23.12.4.4,0,0,1,.09.22.35.35,0,0,1-.12.23,1.2,1.2,0,0,1-.34.25,2.7,2.7,0,0,1-.53.19,2.93,2.93,0,0,1-.7.08,2.74,2.74,0,0,1-1-.16,2.14,2.14,0,0,1-.77-.43,2.07,2.07,0,0,1-.5-.67,2.1,2.1,0,0,1-.18-.88V36.35a1.93,1.93,0,0,1,.17-.79,2.35,2.35,0,0,1,.46-.67,2.17,2.17,0,0,1,.69-.45A2.31,2.31,0,0,1,111.63,34.28Zm.83,2.41a1,1,0,0,0,.45-.07c.08,0,.11-.16.11-.31a1.39,1.39,0,0,0-.1-.53,1.48,1.48,0,0,0-.28-.45,1.42,1.42,0,0,0-.45-.32,1.32,1.32,0,0,0-.57-.12,1.26,1.26,0,0,0-.55.11,1.3,1.3,0,0,0-.44.29,1.4,1.4,0,0,0-.31.44,1.36,1.36,0,0,0-.11.53v.43Z"/><path class="cls-1" d="M121.07,33.49a2.53,2.53,0,0,0-.06-.41,1.2,1.2,0,0,0-.23-.45,1.48,1.48,0,0,0-.47-.35,1.83,1.83,0,0,0-.81-.15,1.61,1.61,0,0,0-1.2.42,1.76,1.76,0,0,0-.42,1.29v3.49a1.75,1.75,0,0,0,.42,1.3,1.69,1.69,0,0,0,1.24.42,1.91,1.91,0,0,0,.8-.14,1.09,1.09,0,0,0,.45-.35,1.32,1.32,0,0,0,.21-.45,4.39,4.39,0,0,0,.07-.44.33.33,0,0,1,.38-.3.39.39,0,0,1,.28.09.55.55,0,0,1,.09.37,1.81,1.81,0,0,1-.16.73,1.93,1.93,0,0,1-.46.61,2.29,2.29,0,0,1-.74.41,2.86,2.86,0,0,1-1,.16,3.26,3.26,0,0,1-.9-.13,2,2,0,0,1-.75-.42,2.1,2.1,0,0,1-.5-.74,3.09,3.09,0,0,1-.18-1.12V33.84a2.78,2.78,0,0,1,.19-1.1,2.07,2.07,0,0,1,.51-.75,1.9,1.9,0,0,1,.75-.41,3,3,0,0,1,.91-.13,2.93,2.93,0,0,1,1,.15,2.24,2.24,0,0,1,.73.41,1.89,1.89,0,0,1,.45.6,1.73,1.73,0,0,1,.16.72.5.5,0,0,1-.09.36.39.39,0,0,1-.28.09.43.43,0,0,1-.28-.08A.32.32,0,0,1,121.07,33.49Z"/><path class="cls-1" d="M125,39.75a2,2,0,0,1-.83-.18,2.15,2.15,0,0,1-.68-.46,2.24,2.24,0,0,1-.45-.68,1.83,1.83,0,0,1-.17-.8v-3a.24.24,0,0,1,.1-.19.4.4,0,0,1,.27-.09.37.37,0,0,1,.25.09.26.26,0,0,1,.11.19v3a1.39,1.39,0,0,0,.1.53,1.83,1.83,0,0,0,.3.46,1.45,1.45,0,0,0,.45.33,1.33,1.33,0,0,0,.55.12,1.26,1.26,0,0,0,.55-.12,1.16,1.16,0,0,0,.44-.32,1.62,1.62,0,0,0,.31-.46,1.41,1.41,0,0,0,.11-.54v-3a.21.21,0,0,1,.11-.19.45.45,0,0,1,.26-.08.42.42,0,0,1,.26.08.22.22,0,0,1,.1.19v3a2,2,0,0,1-.17.81,2,2,0,0,1-.46.67,2.15,2.15,0,0,1-.68.46A1.94,1.94,0,0,1,125,39.75Z"/><path class="cls-1" d="M128.9,31.84a.46.46,0,0,1,.34.14.41.41,0,0,1,.14.32.42.42,0,0,1-.14.33.42.42,0,0,1-.34.14.48.48,0,0,1-.36-.14.43.43,0,0,1-.15-.33.42.42,0,0,1,.15-.32A.52.52,0,0,1,128.9,31.84Zm0,2.51a.42.42,0,0,1,.26.07.22.22,0,0,1,.11.2v4.76a.24.24,0,0,1-.11.2.37.37,0,0,1-.26.09.39.39,0,0,1-.26-.09.26.26,0,0,1-.1-.2V34.62a.23.23,0,0,1,.1-.2A.44.44,0,0,1,128.9,34.35Z"/><path class="cls-1" d="M134.36,31.09a.42.42,0,0,1,.26.07.25.25,0,0,1,.09.2v8a.28.28,0,0,1-.09.2.37.37,0,0,1-.26.09.36.36,0,0,1-.24-.09.26.26,0,0,1-.1-.2v-.5a1.69,1.69,0,0,1-.61.61,1.77,1.77,0,0,1-1.7.08,2.11,2.11,0,0,1-.63-.48,2.25,2.25,0,0,1-.43-.68,2,2,0,0,1-.16-.8V36.38a2.25,2.25,0,0,1,.15-.82,2.29,2.29,0,0,1,.44-.67,2,2,0,0,1,.64-.45,2,2,0,0,1,.78-.16,1.55,1.55,0,0,1,.93.27,1.7,1.7,0,0,1,.55.59V31.36a.23.23,0,0,1,.12-.2A.44.44,0,0,1,134.36,31.09Zm-3.14,6.52a1.32,1.32,0,0,0,.11.55,1.41,1.41,0,0,0,.3.46,1.45,1.45,0,0,0,.45.33,1.21,1.21,0,0,0,.53.12,1.26,1.26,0,0,0,.55-.12,1.69,1.69,0,0,0,.43-.31,1.39,1.39,0,0,0,.29-.37A.65.65,0,0,0,134,38V36.38a1.46,1.46,0,0,0-.12-.6,1.54,1.54,0,0,0-.3-.45,1.57,1.57,0,0,0-.44-.28,1.47,1.47,0,0,0-.5-.09,1.25,1.25,0,0,0-.54.12,1.6,1.6,0,0,0-.45.32,1.31,1.31,0,0,0-.3.46,1.19,1.19,0,0,0-.11.52Z"/><path class="cls-1" d="M137.65,34.28a2.27,2.27,0,0,1,.95.18,1.63,1.63,0,0,1,.63.49,1.88,1.88,0,0,1,.35.69,3.1,3.1,0,0,1,.1.81v2.93a.23.23,0,0,1-.1.2.39.39,0,0,1-.5,0,.25.25,0,0,1-.09-.2v-.5a3,3,0,0,1-.71.6,1.79,1.79,0,0,1-1,.27,1.89,1.89,0,0,1-.6-.09,1.39,1.39,0,0,1-.49-.28,1.27,1.27,0,0,1-.32-.46,1.62,1.62,0,0,1-.12-.66,1.38,1.38,0,0,1,.19-.76,1.42,1.42,0,0,1,.53-.47,2.71,2.71,0,0,1,.83-.24,7,7,0,0,1,1.07-.07H139v-.27a2,2,0,0,0-.07-.54,1.69,1.69,0,0,0-.23-.49,1.44,1.44,0,0,0-.41-.36,1.28,1.28,0,0,0-.61-.14,2.14,2.14,0,0,0-.48,0,1.9,1.9,0,0,0-.34.12,1.67,1.67,0,0,0-.23.11.37.37,0,0,1-.16,0,.25.25,0,0,1-.22-.14.5.5,0,0,1-.07-.25.29.29,0,0,1,.14-.22,1,1,0,0,1,.35-.18,4.93,4.93,0,0,1,.49-.13A3.29,3.29,0,0,1,137.65,34.28Zm1.3,2.95h-.47q-.39,0-.75,0a2,2,0,0,0-.63.13,1,1,0,0,0-.45.29.76.76,0,0,0-.16.51.86.86,0,0,0,.28.72,1.09,1.09,0,0,0,.7.22A1.4,1.4,0,0,0,138,39a1.92,1.92,0,0,0,.48-.29,1.5,1.5,0,0,0,.34-.38A.73.73,0,0,0,139,38Z"/><path class="cls-1" d="M144.73,31.09a.42.42,0,0,1,.26.07.25.25,0,0,1,.09.2v8a.28.28,0,0,1-.09.2.37.37,0,0,1-.26.09.34.34,0,0,1-.24-.09.27.27,0,0,1-.11-.2v-.5a1.59,1.59,0,0,1-.6.61,1.72,1.72,0,0,1-.94.26,1.67,1.67,0,0,1-.76-.18,2.11,2.11,0,0,1-.63-.48,2.07,2.07,0,0,1-.43-.68,2,2,0,0,1-.17-.8V36.38a2.26,2.26,0,0,1,.16-.82,2.48,2.48,0,0,1,.43-.67,2.18,2.18,0,0,1,.64-.45,2.1,2.1,0,0,1,.79-.16,1.55,1.55,0,0,1,.93.27,1.7,1.7,0,0,1,.55.59V31.36a.24.24,0,0,1,.11-.2A.5.5,0,0,1,144.73,31.09Zm-3.15,6.52a1.33,1.33,0,0,0,.12.55,1.41,1.41,0,0,0,.3.46,1.54,1.54,0,0,0,.44.33,1.28,1.28,0,0,0,1.08,0,1.58,1.58,0,0,0,.44-.31,1.39,1.39,0,0,0,.29-.37.65.65,0,0,0,.1-.31V36.38a1.46,1.46,0,0,0-.12-.6,1.57,1.57,0,0,0-.31-.45,1.33,1.33,0,0,0-.44-.28A1.41,1.41,0,0,0,143,35a1.26,1.26,0,0,0-.55.12,1.71,1.71,0,0,0-.44.32,1.31,1.31,0,0,0-.3.46,1.2,1.2,0,0,0-.12.52Z"/><path class="cls-1" d="M148.41,34.28a2.21,2.21,0,0,1,.81.16,2.29,2.29,0,0,1,.69.45,2.2,2.2,0,0,1,.47.67,1.92,1.92,0,0,1,.18.82v1.23a1.84,1.84,0,0,1-.18.8,2,2,0,0,1-.47.68,2.38,2.38,0,0,1-.69.48,1.88,1.88,0,0,1-.81.18,1.85,1.85,0,0,1-.81-.18,2.08,2.08,0,0,1-.67-.47,2.24,2.24,0,0,1-.47-.68,1.85,1.85,0,0,1-.18-.81V36.38a2,2,0,0,1,.17-.79,2.47,2.47,0,0,1,.46-.68,2.09,2.09,0,0,1,1.5-.63Zm1.42,2.1a1.2,1.2,0,0,0-.12-.52,1.31,1.31,0,0,0-.3-.46,1.6,1.6,0,0,0-.45-.32,1.3,1.3,0,0,0-.55-.12,1.26,1.26,0,0,0-.55.12,1.6,1.6,0,0,0-.45.32,1.44,1.44,0,0,0-.29.46,1.34,1.34,0,0,0-.1.52v1.23a1.49,1.49,0,0,0,.1.55,1.41,1.41,0,0,0,.3.46,1.54,1.54,0,0,0,.44.33,1.26,1.26,0,0,0,.55.12A1.3,1.3,0,0,0,149,39a1.45,1.45,0,0,0,.45-.33,1.41,1.41,0,0,0,.3-.46,1.33,1.33,0,0,0,.12-.55Z"/><path class="cls-1" d="M153.17,39.13a1.35,1.35,0,0,0,.9-.24.73.73,0,0,0,.25-.56.77.77,0,0,0-.2-.57,1.45,1.45,0,0,0-.52-.33,5.1,5.1,0,0,0-.66-.22,3.11,3.11,0,0,1-.67-.25,1.66,1.66,0,0,1-.52-.42,1.18,1.18,0,0,1-.2-.73,1.7,1.7,0,0,1,.09-.54,1.5,1.5,0,0,1,.31-.49,1.87,1.87,0,0,1,.55-.36,2.23,2.23,0,0,1,.82-.14,3.31,3.31,0,0,1,.55,0,4.29,4.29,0,0,1,.49.13,1,1,0,0,1,.34.17.28.28,0,0,1,.13.2.6.6,0,0,1-.08.24.24.24,0,0,1-.22.14.32.32,0,0,1-.17-.05l-.25-.1a2.27,2.27,0,0,0-.34-.11,1.84,1.84,0,0,0-.44-.05,1.54,1.54,0,0,0-.52.08,1,1,0,0,0-.35.22.64.64,0,0,0-.19.28.89.89,0,0,0-.06.3.59.59,0,0,0,.21.49,1.71,1.71,0,0,0,.52.28c.2.07.42.14.66.2a2.48,2.48,0,0,1,.67.27,1.56,1.56,0,0,1,.52.47,1.39,1.39,0,0,1,.21.81,1.31,1.31,0,0,1-.47,1.06,2.06,2.06,0,0,1-1.34.39,3.24,3.24,0,0,1-.72-.08,2.43,2.43,0,0,1-.56-.2,1.52,1.52,0,0,1-.36-.26.48.48,0,0,1-.13-.27.43.43,0,0,1,.08-.23.21.21,0,0,1,.18-.11.31.31,0,0,1,.19.08,1.58,1.58,0,0,0,.27.18,1.66,1.66,0,0,0,.4.18A1.83,1.83,0,0,0,153.17,39.13Z"/><path class="cls-1" d="M162,31.09a.41.41,0,0,1,.25.07.25.25,0,0,1,.09.2v8a.28.28,0,0,1-.09.2.39.39,0,0,1-.5,0,.26.26,0,0,1-.1-.2v-.5a1.69,1.69,0,0,1-.61.61,1.77,1.77,0,0,1-1.7.08,2.11,2.11,0,0,1-.63-.48,2.25,2.25,0,0,1-.43-.68,2,2,0,0,1-.16-.8V36.38a2.25,2.25,0,0,1,.15-.82,2.29,2.29,0,0,1,.44-.67,2,2,0,0,1,.64-.45,2,2,0,0,1,.78-.16,1.55,1.55,0,0,1,.93.27,1.7,1.7,0,0,1,.55.59V31.36a.23.23,0,0,1,.12-.2A.45.45,0,0,1,162,31.09Zm-3.15,6.52a1.32,1.32,0,0,0,.11.55,1.59,1.59,0,0,0,.3.46,1.45,1.45,0,0,0,.45.33,1.21,1.21,0,0,0,.53.12,1.26,1.26,0,0,0,.55-.12,1.74,1.74,0,0,0,.44-.31,1.57,1.57,0,0,0,.28-.37.65.65,0,0,0,.1-.31V36.38a1.64,1.64,0,0,0-.11-.6,1.8,1.8,0,0,0-.31-.45,1.57,1.57,0,0,0-.44-.28,1.47,1.47,0,0,0-.5-.09,1.25,1.25,0,0,0-.54.12,1.6,1.6,0,0,0-.45.32,1.47,1.47,0,0,0-.3.46,1.19,1.19,0,0,0-.11.52Z"/><path class="cls-1" d="M165.73,34.28a2.13,2.13,0,0,1,.79.15,2,2,0,0,1,.67.43,2,2,0,0,1,.46.64,1.9,1.9,0,0,1,.18.83,1.12,1.12,0,0,1-.09.5.58.58,0,0,1-.21.27.68.68,0,0,1-.32.11l-.36,0h-2.54v.41a1.31,1.31,0,0,0,.48,1.07,1.89,1.89,0,0,0,1.23.4,2,2,0,0,0,.55-.07l.36-.15.25-.16a.3.3,0,0,1,.19-.07.26.26,0,0,1,.22.12.4.4,0,0,1,.09.22.35.35,0,0,1-.12.23,1.14,1.14,0,0,1-.33.25,3,3,0,0,1-.53.19,3,3,0,0,1-.7.08,2.8,2.8,0,0,1-1-.16,2.18,2.18,0,0,1-.76-.43,1.93,1.93,0,0,1-.5-.67,2.1,2.1,0,0,1-.18-.88V36.35a1.78,1.78,0,0,1,.17-.79,2.17,2.17,0,0,1,.46-.67,2.12,2.12,0,0,1,.68-.45A2.37,2.37,0,0,1,165.73,34.28Zm.83,2.41a1.09,1.09,0,0,0,.45-.07.37.37,0,0,0,.11-.31,1.39,1.39,0,0,0-.1-.53,1.34,1.34,0,0,0-.29-.45,1.28,1.28,0,0,0-.44-.32,1.37,1.37,0,0,0-.58-.12,1.24,1.24,0,0,0-.54.11,1.21,1.21,0,0,0-.44.29,1.4,1.4,0,0,0-.31.44,1.36,1.36,0,0,0-.11.53v.43Z"/><path class="cls-1" d="M69.83,51.9a1.78,1.78,0,0,0,1.23-.39,1.44,1.44,0,0,0,.45-1.16,1.49,1.49,0,0,0-.28-1,2.06,2.06,0,0,0-.69-.58,6.05,6.05,0,0,0-.9-.37,5.23,5.23,0,0,1-.9-.4,1.89,1.89,0,0,1-.69-.63,1.88,1.88,0,0,1-.27-1.08,2,2,0,0,1,.22-1,1.8,1.8,0,0,1,.57-.62,2.17,2.17,0,0,1,.77-.32,4,4,0,0,1,.82-.09,3.63,3.63,0,0,1,.65,0,3.23,3.23,0,0,1,.61.14,1.35,1.35,0,0,1,.45.22.35.35,0,0,1,.18.27.54.54,0,0,1-.09.27.25.25,0,0,1-.24.15.34.34,0,0,1-.19-.07l-.3-.14a2,2,0,0,0-.45-.15,2.28,2.28,0,0,0-.63-.07,3.08,3.08,0,0,0-.61.06,1.51,1.51,0,0,0-.52.22,1,1,0,0,0-.37.4,1.34,1.34,0,0,0-.13.63,1.12,1.12,0,0,0,.27.8,2.5,2.5,0,0,0,.69.48,9.38,9.38,0,0,0,.9.35,3.4,3.4,0,0,1,.9.43,2.33,2.33,0,0,1,.7.73,2.39,2.39,0,0,1,.27,1.23,3,3,0,0,1-.17,1,1.87,1.87,0,0,1-1.25,1.14,3.21,3.21,0,0,1-1,.14,3.24,3.24,0,0,1-1-.14,2.83,2.83,0,0,1-.72-.32,1.52,1.52,0,0,1-.46-.39.61.61,0,0,1-.16-.37.45.45,0,0,1,.11-.27.28.28,0,0,1,.23-.14.31.31,0,0,1,.22.14,1.92,1.92,0,0,0,.32.32,1.77,1.77,0,0,0,.53.32A2.06,2.06,0,0,0,69.83,51.9Z"/><path class="cls-1" d="M75,47.13a2.27,2.27,0,0,1,1,.18,1.63,1.63,0,0,1,.63.49,1.88,1.88,0,0,1,.35.69,3.21,3.21,0,0,1,.1.81v2.93a.23.23,0,0,1-.1.2.39.39,0,0,1-.5,0,.25.25,0,0,1-.09-.2v-.5a3,3,0,0,1-.71.6,1.79,1.79,0,0,1-1,.27,1.89,1.89,0,0,1-.6-.09,1.26,1.26,0,0,1-.49-.28,1.31,1.31,0,0,1-.32-.46,1.62,1.62,0,0,1-.12-.66,1.38,1.38,0,0,1,.19-.76,1.46,1.46,0,0,1,.54-.47,2.84,2.84,0,0,1,.82-.24,8.61,8.61,0,0,1,1.07-.07h.57V49.3a2,2,0,0,0-.07-.54,1.69,1.69,0,0,0-.23-.49,1.44,1.44,0,0,0-.41-.36,1.28,1.28,0,0,0-.61-.14,2.14,2.14,0,0,0-.48,0l-.34.12-.23.11a.37.37,0,0,1-.16.05A.25.25,0,0,1,73.5,48a.59.59,0,0,1-.07-.25.29.29,0,0,1,.14-.22,1.87,1.87,0,0,1,.35-.18,4.93,4.93,0,0,1,.49-.13A3.29,3.29,0,0,1,75,47.13Zm1.3,2.95h-.47q-.39,0-.75,0a2.43,2.43,0,0,0-.63.13,1,1,0,0,0-.45.29.83.83,0,0,0-.16.52.84.84,0,0,0,.28.71,1.09,1.09,0,0,0,.7.22,1.4,1.4,0,0,0,.53-.11,1.92,1.92,0,0,0,.48-.29,1.5,1.5,0,0,0,.34-.38.73.73,0,0,0,.13-.4Z"/><path class="cls-1" d="M80.44,52.6a2,2,0,0,1-.84-.18,2.15,2.15,0,0,1-.68-.46,2.24,2.24,0,0,1-.45-.68,2,2,0,0,1-.17-.8v-3a.23.23,0,0,1,.11-.19.39.39,0,0,1,.26-.09.37.37,0,0,1,.25.09.23.23,0,0,1,.11.19v3a1.47,1.47,0,0,0,.41,1,1.35,1.35,0,0,0,1,.45,1.41,1.41,0,0,0,.54-.11,1.45,1.45,0,0,0,.45-.33,1.66,1.66,0,0,0,.3-.46,1.41,1.41,0,0,0,.11-.54v-3a.24.24,0,0,1,.11-.19.45.45,0,0,1,.26-.08.42.42,0,0,1,.26.08.23.23,0,0,1,.1.19v3a1.84,1.84,0,0,1-.17.81,2,2,0,0,1-.46.67,2.15,2.15,0,0,1-.68.46A1.92,1.92,0,0,1,80.44,52.6ZM80,45.84l-.11,0a.26.26,0,0,1-.21-.09.33.33,0,0,1-.09-.22.22.22,0,0,1,.13-.2L81,44.67a.12.12,0,0,1,.09,0,.21.21,0,0,1,.19.1.37.37,0,0,1,.08.21.26.26,0,0,1-.14.25Z"/><path class="cls-1" d="M87.61,43.94a.37.37,0,0,1,.25.07.23.23,0,0,1,.1.2v8a.26.26,0,0,1-.1.2.33.33,0,0,1-.25.09.37.37,0,0,1-.25-.09.3.3,0,0,1-.1-.2v-.5a1.77,1.77,0,0,1-1.54.87,1.67,1.67,0,0,1-.76-.18,2.26,2.26,0,0,1-.63-.47,2.56,2.56,0,0,1-.44-.68,2.25,2.25,0,0,1-.16-.81V49.24a2.12,2.12,0,0,1,.59-1.49A1.78,1.78,0,0,1,85,47.3a1.92,1.92,0,0,1,.78-.17,1.56,1.56,0,0,1,.94.27,1.8,1.8,0,0,1,.55.59V44.21a.24.24,0,0,1,.11-.2A.5.5,0,0,1,87.61,43.94Zm-3.15,6.52a1.5,1.5,0,0,0,.11.55,1.62,1.62,0,0,0,.31.46,1.41,1.41,0,0,0,.44.33,1.27,1.27,0,0,0,1.08,0,1.55,1.55,0,0,0,.44-.3,1.67,1.67,0,0,0,.29-.38.78.78,0,0,0,.1-.31V49.24a1.48,1.48,0,0,0-.12-.61,1.57,1.57,0,0,0-.31-.45,1.44,1.44,0,0,0-.44-.28,1.41,1.41,0,0,0-.49-.09,1.26,1.26,0,0,0-.55.12,1.55,1.55,0,0,0-.44.32,1.49,1.49,0,0,0-.31.46,1.4,1.4,0,0,0-.11.53Z"/><path class="cls-1" d="M91.32,47.13a2.18,2.18,0,0,1,.8.15,2.33,2.33,0,0,1,.67.43,2.14,2.14,0,0,1,.46.64,1.9,1.9,0,0,1,.17.83,1.18,1.18,0,0,1-.08.51.59.59,0,0,1-.53.37l-.36,0H89.9v.42a1.28,1.28,0,0,0,.49,1.06,1.83,1.83,0,0,0,1.22.4,2,2,0,0,0,.55-.07,2.18,2.18,0,0,0,.36-.15l.25-.16a.32.32,0,0,1,.19-.07.28.28,0,0,1,.23.12.4.4,0,0,1,.09.23.39.39,0,0,1-.12.23,1.42,1.42,0,0,1-.34.24,2.48,2.48,0,0,1-.53.19,2.93,2.93,0,0,1-.7.08,3,3,0,0,1-1-.15,2.42,2.42,0,0,1-.77-.44,2,2,0,0,1-.5-.67,2.1,2.1,0,0,1-.18-.88V49.2a1.93,1.93,0,0,1,.17-.79,2.18,2.18,0,0,1,.46-.66,2,2,0,0,1,.69-.45A2.12,2.12,0,0,1,91.32,47.13Zm.83,2.41a.89.89,0,0,0,.45-.07c.08,0,.11-.16.11-.31a1.39,1.39,0,0,0-.1-.53,1.41,1.41,0,0,0-.28-.45,1.39,1.39,0,0,0-1-.44,1.42,1.42,0,0,0-.55.11,1.6,1.6,0,0,0-.44.29,1.23,1.23,0,0,0-.3.44,1.21,1.21,0,0,0-.12.53v.43Z"/><path class="cls-1" d="M100.91,48.57H97.66v3.66a.25.25,0,0,1-.12.22.52.52,0,0,1-.25.07.56.56,0,0,1-.26-.07.27.27,0,0,1-.11-.22V44.57a.22.22,0,0,1,.11-.21.55.55,0,0,1,.26-.06.51.51,0,0,1,.25.06.21.21,0,0,1,.12.21v3.36h3.25V44.57a.22.22,0,0,1,.11-.21.59.59,0,0,1,.52,0,.21.21,0,0,1,.11.21v7.66a.24.24,0,0,1-.11.22.52.52,0,0,1-.52,0,.27.27,0,0,1-.11-.22Z"/><path class="cls-1" d="M105.07,47.13a2.08,2.08,0,0,1,.82.17,1.84,1.84,0,0,1,.68.45,2.24,2.24,0,0,1,.48.66,2.09,2.09,0,0,1,.17.83v1.22a2.06,2.06,0,0,1-.17.81,2.47,2.47,0,0,1-.48.68,2.36,2.36,0,0,1-.68.47,1.94,1.94,0,0,1-1.63,0,2.08,2.08,0,0,1-.67-.47,2.3,2.3,0,0,1-.47-.68,2,2,0,0,1-.17-.81V49.24a1.83,1.83,0,0,1,.17-.8,2.24,2.24,0,0,1,.45-.68,2.15,2.15,0,0,1,.68-.46A2.08,2.08,0,0,1,105.07,47.13Zm1.42,2.11a1.4,1.4,0,0,0-.11-.53,1.49,1.49,0,0,0-.31-.46,1.36,1.36,0,0,0-.45-.32,1.26,1.26,0,0,0-.55-.12,1.3,1.3,0,0,0-.55.12,1.43,1.43,0,0,0-.44.32,1.29,1.29,0,0,0-.29.46,1.23,1.23,0,0,0-.11.53v1.22a1.32,1.32,0,0,0,.11.55,1.56,1.56,0,0,0,.29.46,1.45,1.45,0,0,0,.45.33,1.33,1.33,0,0,0,1.54-.33,1.62,1.62,0,0,0,.31-.46,1.5,1.5,0,0,0,.11-.55Z"/><path class="cls-1" d="M109.83,52a1.31,1.31,0,0,0,.9-.24.73.73,0,0,0,.26-.56.74.74,0,0,0-.21-.57,1.5,1.5,0,0,0-.51-.33c-.2-.08-.43-.15-.67-.22a3.11,3.11,0,0,1-.67-.25,1.6,1.6,0,0,1-.51-.42,1.11,1.11,0,0,1-.21-.73,1.47,1.47,0,0,1,.1-.54,1.33,1.33,0,0,1,.3-.49,1.93,1.93,0,0,1,.56-.36,2.16,2.16,0,0,1,.82-.14,3.41,3.41,0,0,1,.55,0,4.09,4.09,0,0,1,.48.13,1.08,1.08,0,0,1,.34.17.28.28,0,0,1,.13.2.48.48,0,0,1-.08.24.25.25,0,0,1-.22.15.51.51,0,0,1-.17,0l-.25-.11c-.09,0-.21-.07-.33-.11a2,2,0,0,0-.44,0,1.36,1.36,0,0,0-.53.09.93.93,0,0,0-.35.21.77.77,0,0,0-.19.29.79.79,0,0,0-.06.29.58.58,0,0,0,.21.49,1.52,1.52,0,0,0,.52.28c.2.07.43.14.67.2a3,3,0,0,1,.67.27,1.53,1.53,0,0,1,.51.47,1.39,1.39,0,0,1,.21.81,1.31,1.31,0,0,1-.47,1.06,2.06,2.06,0,0,1-1.34.39,3.24,3.24,0,0,1-.72-.08,2.19,2.19,0,0,1-.55-.2,1,1,0,0,1-.36-.26.42.42,0,0,1-.13-.27.41.41,0,0,1,.07-.23.23.23,0,0,1,.19-.11.32.32,0,0,1,.19.09,1.68,1.68,0,0,0,.26.17,2,2,0,0,0,.41.19A2.07,2.07,0,0,0,109.83,52Z"/><path class="cls-1" d="M113.11,47.2a.41.41,0,0,1,.25.07.23.23,0,0,1,.1.2V48a1.87,1.87,0,0,1,.57-.59,1.56,1.56,0,0,1,.94-.27,1.93,1.93,0,0,1,.79.17,1.78,1.78,0,0,1,.64.45,1.93,1.93,0,0,1,.43.66,2.08,2.08,0,0,1,.16.83v1.22a2.05,2.05,0,0,1-.16.81,2.56,2.56,0,0,1-.44.68,2.26,2.26,0,0,1-.63.47,1.73,1.73,0,0,1-1.68-.08,1.74,1.74,0,0,1-.6-.61v3.12a.26.26,0,0,1-.1.19.4.4,0,0,1-.27.09.39.39,0,0,1-.26-.09.3.3,0,0,1-.1-.19V47.47a.26.26,0,0,1,.1-.2A.44.44,0,0,1,113.11,47.2Zm3.15,2a1.4,1.4,0,0,0-.11-.53,1.66,1.66,0,0,0-.3-.46,1.6,1.6,0,0,0-.45-.32,1.34,1.34,0,0,0-.56-.12,1.43,1.43,0,0,0-.5.09,1.52,1.52,0,0,0-.43.28,1.57,1.57,0,0,0-.31.45,1.48,1.48,0,0,0-.12.61v1.57a.78.78,0,0,0,.1.31,1.67,1.67,0,0,0,.29.38,1.71,1.71,0,0,0,.44.3,1.28,1.28,0,0,0,.56.12,1.24,1.24,0,0,0,.53-.12,1.45,1.45,0,0,0,.45-.33,1.83,1.83,0,0,0,.3-.46,1.5,1.5,0,0,0,.11-.55Z"/><path class="cls-1" d="M118.56,44.69a.49.49,0,0,1,.34.14.45.45,0,0,1,.14.32.5.5,0,0,1-.84.34.46.46,0,0,1-.15-.34.42.42,0,0,1,.15-.32A.49.49,0,0,1,118.56,44.69Zm0,2.51a.44.44,0,0,1,.26.07.24.24,0,0,1,.11.2v4.76a.27.27,0,0,1-.11.2.39.39,0,0,1-.26.09.36.36,0,0,1-.26-.09.26.26,0,0,1-.1-.2V47.47a.23.23,0,0,1,.1-.2A.4.4,0,0,1,118.56,47.2Z"/><path class="cls-1" d="M121.05,50.87a1.07,1.07,0,0,0,.23.77,1.24,1.24,0,0,0,.82.22h.31a.3.3,0,0,1,.25.1.31.31,0,0,1,.09.22.36.36,0,0,1-.09.24.3.3,0,0,1-.25.1h-.31a2,2,0,0,1-1.33-.39,1.59,1.59,0,0,1-.45-1.26V44.94a.23.23,0,0,1,.12-.2.44.44,0,0,1,.24-.07.45.45,0,0,1,.25.07.23.23,0,0,1,.12.2V47.2h1.45a.23.23,0,0,1,.19.09.31.31,0,0,1,.07.21.32.32,0,0,1-.07.22.23.23,0,0,1-.19.09h-1.45Z"/><path class="cls-1" d="M125.2,47.13a2.24,2.24,0,0,1,1,.18,1.63,1.63,0,0,1,.63.49,1.88,1.88,0,0,1,.35.69,3.22,3.22,0,0,1,.11.81v2.93a.24.24,0,0,1-.11.2.35.35,0,0,1-.25.09.37.37,0,0,1-.25-.09.25.25,0,0,1-.09-.2v-.5a3,3,0,0,1-.71.6,1.79,1.79,0,0,1-1,.27,1.89,1.89,0,0,1-.6-.09,1.34,1.34,0,0,1-.81-.74,1.62,1.62,0,0,1-.12-.66,1.38,1.38,0,0,1,.19-.76,1.46,1.46,0,0,1,.54-.47,2.94,2.94,0,0,1,.82-.24,8.74,8.74,0,0,1,1.07-.07h.57V49.3a2,2,0,0,0-.07-.54,1.47,1.47,0,0,0-.23-.49,1.31,1.31,0,0,0-.41-.36,1.28,1.28,0,0,0-.61-.14,2.14,2.14,0,0,0-.48,0l-.34.12-.23.11a.37.37,0,0,1-.15.05.23.23,0,0,1-.22-.14.49.49,0,0,1-.08-.25.29.29,0,0,1,.14-.22,2.25,2.25,0,0,1,.35-.18,4.93,4.93,0,0,1,.49-.13A3.29,3.29,0,0,1,125.2,47.13Zm1.3,2.95H126q-.39,0-.75,0a2.43,2.43,0,0,0-.63.13.88.88,0,0,0-.44.29.77.77,0,0,0-.17.52.87.87,0,0,0,.28.71,1.09,1.09,0,0,0,.7.22,1.4,1.4,0,0,0,.53-.11,1.92,1.92,0,0,0,.48-.29,1.78,1.78,0,0,0,.35-.38.8.8,0,0,0,.12-.4Z"/><path class="cls-1" d="M129.06,43.94a.44.44,0,0,1,.26.07.24.24,0,0,1,.11.2v8a.27.27,0,0,1-.11.2.39.39,0,0,1-.26.09.37.37,0,0,1-.26-.09.26.26,0,0,1-.1-.2v-8a.23.23,0,0,1,.1-.2A.42.42,0,0,1,129.06,43.94Z"/><path class="cls-1" d="M132.45,47.13a2.24,2.24,0,0,1,1,.18,1.63,1.63,0,0,1,.63.49,1.88,1.88,0,0,1,.35.69,3.22,3.22,0,0,1,.11.81v2.93a.26.26,0,0,1-.1.2.39.39,0,0,1-.26.09.32.32,0,0,1-.24-.09.23.23,0,0,1-.1-.2v-.5a2.79,2.79,0,0,1-.71.6,1.74,1.74,0,0,1-1,.27,2,2,0,0,1-.6-.09,1.29,1.29,0,0,1-.48-.28,1.21,1.21,0,0,1-.33-.46,1.62,1.62,0,0,1-.12-.66,1.25,1.25,0,0,1,.73-1.23,2.92,2.92,0,0,1,.83-.24,8.44,8.44,0,0,1,1.06-.07h.58V49.3a2,2,0,0,0-.08-.54,1.3,1.3,0,0,0-.23-.49,1.31,1.31,0,0,0-.41-.36,1.28,1.28,0,0,0-.61-.14,2.14,2.14,0,0,0-.48,0l-.33.12-.24.11a.37.37,0,0,1-.15.05A.24.24,0,0,1,131,48a.47.47,0,0,1-.07-.25.28.28,0,0,1,.13-.22,2.25,2.25,0,0,1,.35-.18,4.93,4.93,0,0,1,.49-.13A3.29,3.29,0,0,1,132.45,47.13Zm1.31,2.95h-.47q-.4,0-.75,0a2.42,2.42,0,0,0-.64.13.92.92,0,0,0-.44.29.77.77,0,0,0-.17.52.84.84,0,0,0,.29.71,1.06,1.06,0,0,0,.69.22,1.49,1.49,0,0,0,.54-.11,2.36,2.36,0,0,0,.48-.29,1.72,1.72,0,0,0,.34-.38.82.82,0,0,0,.13-.4Z"/><path class="cls-1" d="M138.08,47.81a1.5,1.5,0,0,0-.55.11,1.38,1.38,0,0,0-.47.33,1.65,1.65,0,0,0-.47,1.2v2.78a.24.24,0,0,1-.11.2.37.37,0,0,1-.26.09.39.39,0,0,1-.26-.09.26.26,0,0,1-.1-.2V47.47a.23.23,0,0,1,.1-.2.44.44,0,0,1,.26-.07.41.41,0,0,1,.25.07.23.23,0,0,1,.1.2V48a2,2,0,0,1,.57-.61,1.54,1.54,0,0,1,.94-.28h.39a.3.3,0,0,1,.21.1.4.4,0,0,1,0,.48.3.3,0,0,1-.21.1Z"/><path class="cls-1" d="M141.33,47.13a2.13,2.13,0,0,1,.79.15,2.2,2.2,0,0,1,.67.43,2,2,0,0,1,.46.64,1.9,1.9,0,0,1,.18.83,1.16,1.16,0,0,1-.09.51.6.6,0,0,1-.22.27.63.63,0,0,1-.31.1l-.36,0h-2.54v.42a1.3,1.3,0,0,0,.48,1.06,1.84,1.84,0,0,0,1.23.4,2,2,0,0,0,.55-.07l.36-.15.25-.16a.3.3,0,0,1,.19-.07.26.26,0,0,1,.22.12.4.4,0,0,1,.09.23.39.39,0,0,1-.12.23,1.57,1.57,0,0,1-.33.24,3,3,0,0,1-.53.19,3,3,0,0,1-.7.08,3.05,3.05,0,0,1-1-.15,2.37,2.37,0,0,1-.76-.44,1.84,1.84,0,0,1-.5-.67,2.1,2.1,0,0,1-.18-.88V49.2a1.78,1.78,0,0,1,.17-.79,2,2,0,0,1,.46-.66,1.84,1.84,0,0,1,.68-.45A2.17,2.17,0,0,1,141.33,47.13Zm.83,2.41a.94.94,0,0,0,.45-.07.37.37,0,0,0,.11-.31,1.39,1.39,0,0,0-.1-.53,1.44,1.44,0,0,0-.29-.45,1.28,1.28,0,0,0-.44-.32,1.42,1.42,0,0,0-1.12,0,1.51,1.51,0,0,0-.45.29,1.55,1.55,0,0,0-.3.44,1.36,1.36,0,0,0-.11.53v.43Z"/><path class="cls-1" d="M145.94,52a1.3,1.3,0,0,0,.89-.24.7.7,0,0,0,.26-.56.77.77,0,0,0-.2-.57,1.45,1.45,0,0,0-.52-.33,6.59,6.59,0,0,0-.67-.22,3.23,3.23,0,0,1-.66-.25,1.53,1.53,0,0,1-.52-.42,1.18,1.18,0,0,1-.2-.73,1.7,1.7,0,0,1,.09-.54,1.5,1.5,0,0,1,.31-.49,1.87,1.87,0,0,1,.55-.36,2.23,2.23,0,0,1,.82-.14,3.31,3.31,0,0,1,.55,0,4.93,4.93,0,0,1,.49.13,1.2,1.2,0,0,1,.34.17.28.28,0,0,1,.13.2.6.6,0,0,1-.08.24.25.25,0,0,1-.22.15.41.41,0,0,1-.17,0l-.25-.11-.34-.11a1.84,1.84,0,0,0-.44,0,1.31,1.31,0,0,0-.52.09.86.86,0,0,0-.35.21.67.67,0,0,0-.19.29.79.79,0,0,0-.06.29.58.58,0,0,0,.21.49,1.56,1.56,0,0,0,.51.28c.21.07.43.14.67.2a2.85,2.85,0,0,1,.67.27,1.56,1.56,0,0,1,.52.47,1.39,1.39,0,0,1,.21.81,1.31,1.31,0,0,1-.47,1.06,2.06,2.06,0,0,1-1.34.39,3.24,3.24,0,0,1-.72-.08,2.27,2.27,0,0,1-.56-.2,1.28,1.28,0,0,1-.36-.26.48.48,0,0,1-.13-.27.43.43,0,0,1,.08-.23.21.21,0,0,1,.18-.11.3.3,0,0,1,.19.09l.27.17a1.71,1.71,0,0,0,1,.27Z"/><path class="cls-2" d="M46.29,19.92l-.06-.14-7.64-11L31.05,4.51,24.74,3.26l-5.86.39L12.16,6,8.74,8.32,4.15,13.14l-2.09,3L.48,19.78,0,23.63.36,29.2l.18,3.55L2.93,37.2l2.18,4.52.06.1,5.48,4.84,4.41,2.22,5.45,1.35,6.25-.07,6.39-1.86,6.36-4.22,5.06-6.81.06-.11L47,28.64l0-.16Zm-10.88,1-.18-5.17,5.56,5.43Zm5.57.92-3.69,4.64-1.73-4.91Zm-5.67-6.92,2.56-3.64c.54,1.76,2,6.53,2.89,9ZM35.14,14l-.27-3.32,2.51.12Zm-.08,8.08,1.72,4.85L32,29.23Zm1.8,5.53v7.84L31.91,30ZM26.72,18.14l-5.11-1.85,4.22-2.55Zm-.3-5.38.3-3.34,6.46,1Zm0,.87,7.39,1.43-6.47,3.11Zm-5.25,3.21,5.48,2-4.63,9.37ZM21.48,29,17.18,28,20.66,18Zm.11-13.45,1.05-2.29,2.4.21Zm4.17-2.67-2.58-.23L26,9.88Zm-3.35-.39-4.09-3,7.3-.12Zm-1.76,3.57-5.94.13,7.11-2.69Zm-.25.65L16.76,27.27,13.28,16.86ZM16,27l-4-4.31,1-4.84Zm-.55.36C12.46,26,7.94,24,6.71,23.59l-.08-2.75L11.41,23Zm.12.76-9.24,1c.08-2.31.21-4.31.29-4.88C7.58,24.56,11.62,26.32,15.54,28.08Zm.54.59L13,33.19,7,29.67Zm.48.45,1.25,7.82-4.32-3.39Zm.59-.43,4.24.94-3,6.92ZM22,29.8,25.7,31l-6.6,5.55Zm.58-.49,10.74-6.65-7.09,7.87Zm0-.78L27.32,19l7,2.26Zm5.39-10,6.56-3.15.17,5.32Zm-.7-5.45,6.91-2.34.3,3.74ZM27,8.82l2.15-2.66,4.27,3.69Zm-.63-.25L23,5.32,28.52,6Zm-.77.17-7.43.11L22,5.33Zm-3.86,4.07-8.16,3.1,3.84-6.25Zm-9,3.28L10,14.22l6.38-4Zm-.26.6-.92,4.61L9.9,15Zm-1.36,5.49-4.39-2,2.55-5.06ZM8.44,15.35,6.1,20l-3.35-.2ZM3.07,18.73l3.28-5.41,2.39,1ZM6,20.64l.07,2.5L2.84,20.46ZM6.25,30l6.05,3.55L5.82,36ZM12,34.37,7,40.26,5.86,36.7Zm.86,0,.91,5.07-6.11,1Zm1,5.72v.68l-3.59-.08Zm-.3-5.68,4.14,3.24-3.28,1.58ZM16,39.15,14.47,40.4v-.51Zm2.16-.94,2.46,5.11L14.78,41Zm1.13.86,6.27,5.74-4.06-1.15Zm.44-.48L31.32,43l-4.48,2.15Zm-.83-1,7.35-6.17L31.5,42.34Zm7.93-6.45,4.26-.86.64,11Zm4.33-1.53-3.91.78L34,22.86Zm5.6,6.7L32.41,42l-.65-11.24Zm.52.39,3.53,1.71-7.59,3.64Zm.64-.4,5.72-2.75L41.4,38Zm-.42-.52v-8l6.24,5Zm4.13-13.73,4.32,6-8.16-1.22ZM38.76,12l6.66,7.87-3.64,1.3C41.37,20.15,40,16,38.76,12Zm-.22-2.2,3.44,5-3.64-4.32ZM38,9.16l-.23.8L34,6.92Zm-1,1L34.7,10,32.26,6.31ZM33,8.58,29.7,5.75l1-.56ZM29.91,4.91l-.78.42-2-1Zm-5.14-1,2.52,1.22-4.1-.47ZM23.11,4,22,4.54l-1.27-.37Zm-4.2.31,1.61.46-5,.73Zm2.14,1L17.31,8.79l-4-2.3ZM12.42,6.73l4.06,2.33L9.36,10.73Zm-3.15,2,1.64-1.08L9.07,10.05ZM15.54,10l-6,3.75L9,11.49ZM8.89,13.66l-2-.82,1.49-1.06ZM8.42,10l-.16,1-.9.64ZM7,11.11,6,12.63l-.64.16ZM4.58,13.65l.53-.13L3.9,14.64Zm-2.09,3,2.23-1.92L2.26,18.82Zm-.37,4,3.79,3.16L1.12,28.33ZM.94,20l1.11-2.9L1.49,20l-.8,2.35ZM.63,23.81l.62-1.46L.78,26Zm.55,8.82-.05-1,.72,2.23Zm-.13-3.35L5.9,24.76c-.16,1.49-.24,4.15-.26,4.64L3.23,36Zm4.42,2.47-.31,4.49-1.44.35Zm-.23,5.14.86,2.78L3.83,37.23Zm-.81,1.93,1.87,2-.74.35ZM6,41.68l.74-.35,2.1,2.86Zm1.49-.42,6.11.13-2.74,4.46Zm3.86,5L14,42l.81,6Zm4.12,2-.81-6,5.11,7.07Zm4.85.73-5.24-7.25,5.84,2.35Zm1.23-4.69L26,45.62l-5.1,3.6Zm5.15,5.17-5.12,0,5.22-3.69L30.15,48Zm.75-4,4.22-2-1,4.06Zm5-2.39,7.25-3.48-8.26,7.46Zm.57,4.5-.63,0,2.38-1.2Zm6.35-4.78-.31.74-.25.12-6,3,7.86-7.1Zm1.23-1.3c.42-1,.88-2.1,1.22-2.92l1.49-.71ZM44,36.87l-1.73.84L44,34.23Zm.67-2.27V32.93l.91-1.71Zm-.42-2.24L38.32,27.6l7.83,1.17Zm-2.1-10.68,3.54-1.26.55,7Z"/><path class="cls-1" d="M67.42,22.91a2.28,2.28,0,0,1,.5-1.35,1.4,1.4,0,0,1,1.13-.67,1.6,1.6,0,0,1,.94.45c.37.3.73.63,1.09,1a5,5,0,0,0,1.61,1,6.09,6.09,0,0,0,2.43.46,5,5,0,0,0,3.24-1A3.35,3.35,0,0,0,79.59,20a3.8,3.8,0,0,0-1.19-2.85,8.86,8.86,0,0,0-2.87-1.82c-1.13-.45-2.26-.94-3.39-1.46a7.55,7.55,0,0,1-2.89-2.36,6.3,6.3,0,0,1-1.19-3.92,6.81,6.81,0,0,1,.73-3.25,5.19,5.19,0,0,1,2-2.12,9.07,9.07,0,0,1,2.6-1.08A11.8,11.8,0,0,1,76.25.78a17.72,17.72,0,0,1,2,.12,13.53,13.53,0,0,1,2.07.41,4.63,4.63,0,0,1,1.7.8,1.51,1.51,0,0,1,.68,1.2,2.55,2.55,0,0,1-.43,1.34,1.29,1.29,0,0,1-1.13.68,2.21,2.21,0,0,1-1-.34,9.6,9.6,0,0,0-1.61-.68A7.23,7.23,0,0,0,76.25,4a5.77,5.77,0,0,0-3.22.8,2.73,2.73,0,0,0-1.21,2.45,2.74,2.74,0,0,0,.64,1.83,5,5,0,0,0,1.65,1.27c.67.33,1.42.66,2.25,1a22.49,22.49,0,0,1,2.46,1.12,13,13,0,0,1,2.24,1.48,6.22,6.22,0,0,1,1.65,2.3,8.47,8.47,0,0,1,.63,3.39,7,7,0,0,1-2.21,5.58,8.66,8.66,0,0,1-5.87,1.92,10.64,10.64,0,0,1-5.55-1.36C68.19,24.82,67.42,23.88,67.42,22.91Z"/><path class="cls-1" d="M86.64,19.11V8.79q0-4.06,2.18-6A8.3,8.3,0,0,1,94.51.89a9,9,0,0,1,5.84,1.79,5.68,5.68,0,0,1,2.21,4.62,2.16,2.16,0,0,1-.42,1.55,2.11,2.11,0,0,1-1.46.4c-1.23,0-1.85-.41-1.88-1.24q-.21-3.79-4.14-3.79-4.26,0-4.26,4.57V19.11q0,4.58,4.33,4.58a5.22,5.22,0,0,0,2.12-.38,2.35,2.35,0,0,0,1.23-1.08A5.62,5.62,0,0,0,98.59,21a6.77,6.77,0,0,0,.21-1.31c.07-.83.69-1.24,1.85-1.24a2.12,2.12,0,0,1,1.47.41,2,2,0,0,1,.44,1.54,5.92,5.92,0,0,1-2.23,4.79A8.94,8.94,0,0,1,94.48,27,8.26,8.26,0,0,1,88.8,25.1Q86.64,23.19,86.64,19.11Z"/><path class="cls-1" d="M106,25.57V1.21a1,1,0,0,1,.52-.87A2.32,2.32,0,0,1,107.85,0a2.46,2.46,0,0,1,1.33.34,1,1,0,0,1,.55.87V25.57a1.08,1.08,0,0,1-.57.85,2.27,2.27,0,0,1-1.31.39,2.19,2.19,0,0,1-1.32-.39A1.1,1.1,0,0,1,106,25.57Z"/><path class="cls-1" d="M113,4.89a1,1,0,0,1,.53-.92l4.4-2.23a1.6,1.6,0,0,1,.39-.07,1,1,0,0,1,.85.46,1.64,1.64,0,0,1,.35,1,1,1,0,0,1-.57,1l-4.29,2.16a.94.94,0,0,1-.42.11,1.12,1.12,0,0,1-.87-.46A1.55,1.55,0,0,1,113,4.89Zm1,20.68V11.21a1,1,0,0,1,.52-.87,2.32,2.32,0,0,1,1.33-.34,2.46,2.46,0,0,1,1.35.34,1,1,0,0,1,.53.87V25.57a1.1,1.1,0,0,1-.55.85,2.25,2.25,0,0,1-1.33.39,2.14,2.14,0,0,1-1.31-.39A1.09,1.09,0,0,1,113.94,25.57Z"/><path class="cls-1" d="M121.57,25.57V11.21a1,1,0,0,1,.51-.87,2.35,2.35,0,0,1,1.33-.34,2,2,0,0,1,1.19.34,1,1,0,0,1,.48.88v1.29a4.87,4.87,0,0,1,1.82-1.94,5.46,5.46,0,0,1,2.93-.78,5.6,5.6,0,0,1,4.34,2.05A7.17,7.17,0,0,1,136,16.77v8.8a1,1,0,0,1-.55.9,2.55,2.55,0,0,1-1.33.34,2.52,2.52,0,0,1-1.28-.34,1,1,0,0,1-.56-.9V16.8a3.63,3.63,0,0,0-1.07-2.55,3.36,3.36,0,0,0-2.52-1.13,3.3,3.3,0,0,0-2.37,1,3.55,3.55,0,0,0-1,2.67v8.77a1.07,1.07,0,0,1-.57.85,2.25,2.25,0,0,1-1.31.39,2.14,2.14,0,0,1-1.31-.39A1.07,1.07,0,0,1,121.57,25.57Z"/><path class="cls-1" d="M139.44,3.83a1.77,1.77,0,0,1,.64-1.38,2.19,2.19,0,0,1,1.52-.57,2.23,2.23,0,0,1,1.53.57,1.8,1.8,0,0,1,0,2.74,2.21,2.21,0,0,1-1.53.59,2.16,2.16,0,0,1-1.52-.59A1.78,1.78,0,0,1,139.44,3.83Zm.32,21.74V11.21a1,1,0,0,1,.51-.87A2.35,2.35,0,0,1,141.6,10a2.46,2.46,0,0,1,1.35.34,1,1,0,0,1,.53.87V25.57a1.08,1.08,0,0,1-.55.85,2.25,2.25,0,0,1-1.33.39,2.14,2.14,0,0,1-1.31-.39A1.07,1.07,0,0,1,139.76,25.57Z"/><path class="cls-1" d="M146.81,20V16.84a7.12,7.12,0,0,1,1.85-5.1,7.21,7.21,0,0,1,5.49-2,8.47,8.47,0,0,1,3.87.79c1,.54,1.56,1.13,1.56,1.8a2,2,0,0,1-.44,1.2,1.3,1.3,0,0,1-1,.6,5.4,5.4,0,0,1-1.26-.53,5.41,5.41,0,0,0-2.39-.53q-3.9,0-3.9,3.73V20q0,3.74,3.93,3.74a5.13,5.13,0,0,0,2.43-.57,5,5,0,0,1,1.3-.57,1.4,1.4,0,0,1,1.15.57,2,2,0,0,1,.44,1.21c0,.66-.54,1.27-1.63,1.84a8.47,8.47,0,0,1-4,.85q-3.69,0-5.53-1.93A7.13,7.13,0,0,1,146.81,20Z"/><path class="cls-1" d="M161.64,20V16.77a6.58,6.58,0,0,1,2.16-4.89A7.16,7.16,0,0,1,169,9.79a7.27,7.27,0,0,1,5.14,2.07,6.55,6.55,0,0,1,2.2,4.91V20A6.66,6.66,0,0,1,174.1,25a7.24,7.24,0,0,1-10.27,0A6.68,6.68,0,0,1,161.64,20Zm3.72,0a3.68,3.68,0,0,0,1.06,2.59,3.39,3.39,0,0,0,5.09,0A3.66,3.66,0,0,0,172.59,20V16.78a3.56,3.56,0,0,0-1.08-2.53,3.43,3.43,0,0,0-5.09,0,3.58,3.58,0,0,0-1.06,2.53Z"/></g></g></svg>